<svg width="35" height="35" viewBox="0 0 35 35" fill="none" xmlns="http://www.w3.org/2000/svg">
<g clip-path="url(#clip0)">
<g filter="url(#filter0_d)">
<path d="M31.25 0H3.75C2.75544 0 1.80161 0.3838 1.09835 1.06697C0.395088 1.75014 0 2.67671 0 3.64286L0 30.3571C0 31.3233 0.395088 32.2499 1.09835 32.933C1.80161 33.6162 2.75544 34 3.75 34H14.4727V22.4408H9.55078V17H14.4727V12.8532C14.4727 8.13647 17.3633 5.53107 21.7906 5.53107C23.9109 5.53107 26.1281 5.89839 26.1281 5.89839V10.5279H23.6852C21.2781 10.5279 20.5273 11.9789 20.5273 13.4672V17H25.9008L25.0414 22.4408H20.5273V34H31.25C32.2446 34 33.1984 33.6162 33.9016 32.933C34.6049 32.2499 35 31.3233 35 30.3571V3.64286C35 2.67671 34.6049 1.75014 33.9016 1.06697C33.1984 0.3838 32.2446 0 31.25 0Z" fill="white"/>
</g>
</g>
<defs>
<filter id="filter0_d" x="-50" y="-46" width="135" height="136" filterUnits="userSpaceOnUse" color-interpolation-filters="sRGB">
<feFlood flood-opacity="0" result="BackgroundImageFix"/>
<feColorMatrix in="SourceAlpha" type="matrix" values="0 0 0 0 0 0 0 0 0 0 0 0 0 0 0 0 0 0 127 0"/>
<feOffset dy="4"/>
<feGaussianBlur stdDeviation="25"/>
<feColorMatrix type="matrix" values="0 0 0 0 0 0 0 0 0 0 0 0 0 0 0 0 0 0 0.3 0"/>
<feBlend mode="normal" in2="BackgroundImageFix" result="effect1_dropShadow"/>
<feBlend mode="normal" in="SourceGraphic" in2="effect1_dropShadow" result="shape"/>
</filter>
<clipPath id="clip0">
<rect width="35" height="35" fill="white"/>
</clipPath>
</defs>
</svg>
