<svg width="35" height="35" viewBox="0 0 35 35" fill="none" xmlns="http://www.w3.org/2000/svg">
<path d="M17.5039 9.03922C12.5379 9.03922 8.53235 12.8167 8.53235 17.5C8.53235 22.1833 12.5379 25.9608 17.5039 25.9608C22.4699 25.9608 26.4755 22.1833 26.4755 17.5C26.4755 12.8167 22.4699 9.03922 17.5039 9.03922ZM17.5039 23.0006C14.2948 23.0006 11.6712 20.5338 11.6712 17.5C11.6712 14.4662 14.287 11.9994 17.5039 11.9994C20.7209 11.9994 23.3366 14.4662 23.3366 17.5C23.3366 20.5338 20.7131 23.0006 17.5039 23.0006ZM28.935 8.69313C28.935 9.79031 27.9981 10.6666 26.8424 10.6666C25.679 10.6666 24.7499 9.78294 24.7499 8.69313C24.7499 7.60331 25.6868 6.71968 26.8424 6.71968C27.9981 6.71968 28.935 7.60331 28.935 8.69313ZM34.877 10.696C34.7443 8.05249 34.104 5.71087 32.0505 3.7816C30.0047 1.85234 27.5218 1.24852 24.7186 1.11598C21.8296 0.961341 13.1704 0.961341 10.2814 1.11598C7.48606 1.24116 5.00307 1.84497 2.94953 3.77424C0.895985 5.7035 0.263525 8.04513 0.122978 10.6887C-0.0409927 13.4132 -0.0409927 21.5794 0.122978 24.304C0.255717 26.9475 0.895985 29.2891 2.94953 31.2184C5.00307 33.1477 7.47825 33.7515 10.2814 33.884C13.1704 34.0387 21.8296 34.0387 24.7186 33.884C27.5218 33.7588 30.0047 33.155 32.0505 31.2184C34.0962 29.2891 34.7365 26.9475 34.877 24.304C35.041 21.5794 35.041 13.4206 34.877 10.696ZM31.1447 27.2273C30.5357 28.6706 29.3567 29.7825 27.8185 30.3642C25.5151 31.2258 20.0494 31.0269 17.5039 31.0269C14.9585 31.0269 9.48494 31.2184 7.18935 30.3642C5.65895 29.7899 4.47992 28.678 3.86308 27.2273C2.94953 25.0551 3.16035 19.9005 3.16035 17.5C3.16035 15.0995 2.95733 9.93758 3.86308 7.77268C4.47211 6.32941 5.65114 5.2175 7.18935 4.63578C9.49275 3.77424 14.9585 3.97306 17.5039 3.97306C20.0494 3.97306 25.5229 3.7816 27.8185 4.63578C29.3489 5.21014 30.5279 6.32205 31.1447 7.77268C32.0583 9.94494 31.8475 15.0995 31.8475 17.5C31.8475 19.9005 32.0583 25.0624 31.1447 27.2273Z" fill="white"/>
</svg>
