<svg width="180" height="152" viewBox="0 0 180 152" fill="none" xmlns="http://www.w3.org/2000/svg">
<g clip-path="url(#clip0)">
<path d="M91.1986 85.4079C91.1986 111.69 89.6919 91.8716 45.0926 90.6501C2.40966 93.2967 2 111.69 2 85.4079C2 59.126 21.9678 37.8203 46.5993 37.8203C71.2308 37.8203 91.1986 59.126 91.1986 85.4079Z" fill="#CA2128"/>
<path d="M120.28 69.6772C106.573 73.0214 94.6493 65.6508 91.9524 63.8092C91.3476 62.1326 90.6607 60.5085 89.9007 58.9365L94.2901 55.5291C94.5365 55.3391 94.7599 55.1244 94.9983 54.9282C97.8999 54.4717 113.057 52.9522 120.28 69.6772ZM78.7081 37.1249C79.3524 32.2092 81.3574 27.6034 84.5081 23.8048C87.5027 20.1945 91.4094 17.4728 95.8127 15.9363L98.4457 15.0176L100.463 25.6694C101.107 29.0744 101.076 32.5156 100.367 35.9023C99.1051 41.9343 95.7489 47.3207 90.918 51.0695L87.1483 53.996C84.5629 49.8921 81.4539 46.2503 77.9219 43.1337L78.7081 37.1249Z" fill="#CA2128"/>
<path d="M3.60645 104.958L25.4049 99.4353C39.2622 95.933 53.9211 95.933 67.7784 99.4353L89.5768 104.958C84.7257 124.457 67.3208 138.954 46.5931 138.954C25.8653 138.954 8.4604 124.457 3.60645 104.958Z" fill="#CA2128"/>
<path d="M96.831 73.808C97.5991 73.8368 98.2533 74.1251 98.7938 74.6728C99.3344 75.1917 99.6188 75.8404 99.6473 76.6187V91.5802C99.4766 93.3099 98.5378 94.2468 96.831 94.391C96.0345 94.391 95.3375 94.1315 94.7401 93.6126C94.1712 93.0648 93.8867 92.3874 93.8867 91.5802V76.6187C93.9151 75.8115 94.2139 75.1485 94.7828 74.6296C95.3518 74.0818 96.0345 73.808 96.831 73.808ZM118.465 73.5918C119.945 73.5918 121.395 73.7647 122.818 74.1106C124.268 74.4566 125.648 74.9754 126.957 75.6673C128.265 76.3304 129.417 77.224 130.414 78.3483C131.437 79.4726 131.992 80.8131 132.077 82.3698V84.1859V91.5802C131.906 93.3099 130.968 94.2468 129.262 94.391C128.465 94.391 127.768 94.1315 127.17 93.6126C126.602 93.0648 126.316 92.3874 126.316 91.5802V89.6776V83.7103C126.26 82.8167 125.919 82.0815 125.293 81.505C124.695 80.8996 124.012 80.4239 123.245 80.0779C122.505 79.7321 121.723 79.4726 120.897 79.2997C120.101 79.1267 119.29 79.0402 118.465 79.0402C117.641 79.0402 116.815 79.1267 115.99 79.2997C115.194 79.4726 114.411 79.7321 113.644 80.0779C112.903 80.4239 112.221 80.8996 111.596 81.505C110.998 82.0815 110.67 82.8167 110.614 83.7103V89.6776V91.5802C110.472 93.3099 109.547 94.2468 107.84 94.391C107.043 94.391 106.347 94.1315 105.749 93.6126C105.18 93.0648 104.896 92.3874 104.896 91.5802V84.1859V82.3698C104.981 80.8131 105.521 79.4726 106.517 78.3483C107.513 77.224 108.665 76.3304 109.973 75.6673C111.282 74.9754 112.648 74.4566 114.071 74.1106C115.521 73.7647 116.986 73.5918 118.465 73.5918ZM140.44 73.808C141.209 73.8368 141.863 74.1251 142.404 74.6728C142.945 75.1917 143.229 75.8404 143.257 76.6187V91.5802C143.257 93.8865 142.945 96.063 142.319 98.1097C141.749 99.9259 140.811 101.454 139.502 102.693C138.222 103.962 136.586 104.654 134.595 104.769H132.973C132.206 104.74 131.566 104.452 131.054 103.904C130.513 103.385 130.228 102.737 130.2 101.958C130.2 101.151 130.47 100.459 131.01 99.8826C131.523 99.3061 132.177 99.0033 132.973 98.9745H133.144C134.225 98.9169 135.122 98.4988 135.833 97.7206C136.544 96.9422 136.999 96.0341 137.198 94.9963C137.397 93.9585 137.496 92.6181 137.496 90.9748V76.6187C137.525 75.8115 137.824 75.1485 138.392 74.6296C138.962 74.0818 139.644 73.808 140.44 73.808ZM172.359 91.5802V81.1591C172.359 80.4383 171.99 80.0636 171.249 80.0348H156.314C155.774 80.0636 155.305 80.3086 154.906 80.7698C154.508 81.2022 154.209 81.7212 154.01 82.3265C153.839 82.9031 153.754 83.4941 153.754 84.0994C153.754 84.676 153.839 85.267 154.01 85.8723C154.209 86.4489 154.508 86.9678 154.906 87.429C155.305 87.8614 155.774 88.0776 156.314 88.0776H167.238C168.035 88.0776 168.704 88.3659 169.244 88.9425C169.813 89.4902 170.097 90.1677 170.097 90.9748C170.097 91.782 169.813 92.4595 169.244 93.0072C168.704 93.5837 168.035 93.872 167.238 93.872H156.485C154.494 93.8432 152.844 93.281 151.535 92.1856C150.255 91.0614 149.331 89.8073 148.762 88.4236C148.221 87.0111 147.951 85.5553 147.951 84.0562C147.951 82.6148 148.235 81.2022 148.805 79.8186C149.373 78.406 150.298 77.152 151.578 76.0566C152.858 74.9323 154.75 74.3268 157.254 74.2404H175.176C175.972 74.2404 176.654 74.5142 177.224 75.062C177.792 75.5809 178.091 76.2439 178.12 77.0511V91.5802C178.12 92.3874 177.821 93.0648 177.224 93.6126C176.654 94.1315 175.972 94.391 175.176 94.391C173.468 94.2468 172.53 93.3099 172.359 91.5802Z" fill="white"/>
<path d="M69.2098 66.7803C70.6891 66.7803 72.1398 66.9532 73.5622 67.2991C75.013 67.6451 76.3928 68.1639 77.7015 68.8558C79.01 69.5189 80.1622 70.4125 81.1578 71.5368C82.1819 72.6611 82.7365 74.0016 82.8218 75.5583V77.3744V91.1685C82.6512 92.8981 81.7124 93.835 80.0056 93.9792C79.209 93.9792 78.5122 93.7197 77.9148 93.2009C77.3458 92.6531 77.0612 91.9756 77.0612 91.1685V76.8988C77.0043 76.0051 76.6631 75.27 76.0372 74.6934C75.4399 74.0881 74.7571 73.6124 73.9891 73.2664C73.2494 72.9205 72.4671 72.6611 71.6421 72.4881C70.8456 72.3152 70.0348 72.2287 69.2098 72.2287C68.3848 72.2287 22.2575 72.3152 21.4325 72.4881C20.6359 72.6611 19.8535 72.9205 19.0855 73.2664C18.3459 73.6124 17.6631 74.0881 17.0372 74.6934C16.4399 75.27 16.1127 76.0051 16.0558 76.8988V91.1685C15.9136 92.8981 14.9891 93.835 13.2822 93.9792C12.4857 93.9792 11.7887 93.7197 11.1913 93.2009C10.6224 92.6531 10.3379 91.9756 10.3379 91.1685V77.3744V75.5583C10.4232 74.0016 10.9637 72.6611 11.9594 71.5368C12.9551 70.4125 14.1071 69.5189 15.4158 68.8558C16.7243 68.1639 18.0898 67.6451 19.5122 67.2991C20.963 66.9532 67.7306 66.7803 69.2098 66.7803Z" fill="white"/>
</g>
<defs>
<clipPath id="clip0">
<rect width="180" height="152" fill="white"/>
</clipPath>
</defs>
</svg>
