<svg width="180" height="180" viewBox="0 0 180 180" fill="none" xmlns="http://www.w3.org/2000/svg">
<path d="M96.6474 165.339C96.4987 165.339 96.3509 165.334 96.204 165.325C89.5463 165.195 84.0174 160.229 83.6097 154.004C83.4948 152.271 83.786 150.537 84.4537 148.921L66.8221 134.339L65.4893 133.236L66.668 131.988L112.255 83.7316C110.882 79.0838 112.587 74.1095 116.684 71.0796C116.917 70.8897 117.14 70.7322 117.369 70.5914L144.466 53.7924C145.148 53.3692 145.912 53.0651 146.738 52.891C148.057 52.4778 149.431 52.2695 150.826 52.2695C155.168 52.2695 159.187 54.2872 161.577 57.667C164.798 62.209 164.349 68.213 160.498 72.3017C160.005 72.9499 159.406 73.493 158.72 73.9196L144.157 82.9476L149.76 87.5829C150.62 87.4163 151.495 87.3321 152.372 87.3321C157.543 87.3321 162.194 90.2054 164.223 94.6549C164.315 94.8273 164.43 95.0839 164.524 95.3522L174.856 124.192C175.117 124.919 175.231 125.691 175.197 126.485C175.547 131.923 171.951 136.917 166.425 138.651C165.099 139.067 163.722 139.277 162.335 139.277C157.997 139.277 153.989 137.261 151.591 133.88C151.053 133.268 150.648 132.591 150.387 131.862L146.952 122.271L130.515 139.671C136.146 140.813 140.297 145.32 140.654 150.718C141.015 156.159 137.416 161.149 131.894 162.888C131.126 163.215 130.321 163.405 129.5 163.454L106.077 164.807L104.556 164.893L97.04 165.327C96.9144 165.336 96.7809 165.339 96.6474 165.339Z" fill="#333333"/>
<path d="M150.825 53.9371C154.425 53.9371 157.955 55.5674 160.093 58.5865C162.951 62.6203 162.398 67.8278 159.1 71.2701C158.737 71.7616 158.286 72.1915 157.737 72.5314L141.24 82.7591L149.28 89.4079C150.308 89.1296 151.346 88.9972 152.369 88.9972C156.729 88.9972 160.809 91.4139 162.584 95.3077C162.678 95.4902 162.765 95.6768 162.834 95.8734L173.167 124.72C173.375 125.303 173.449 125.901 173.413 126.496C173.75 131.109 170.763 135.533 165.86 137.072C164.69 137.438 163.502 137.612 162.333 137.612C158.604 137.612 155.079 135.838 153.023 132.89C152.609 132.434 152.282 131.916 152.074 131.333L147.659 119.009L126.8 141.088L128.016 141.019C128.116 141.013 128.216 141.01 128.314 141.01C128.865 141.01 129.401 141.097 129.913 141.255C134.763 142.143 138.557 145.988 138.876 150.818C139.195 155.648 135.932 159.897 131.236 161.337C130.661 161.594 130.039 161.753 129.385 161.792L105.965 163.144L104.447 163.23L96.9293 163.664C96.8358 163.67 96.7415 163.673 96.6489 163.673C96.5233 163.673 96.3996 163.668 96.2749 163.659C90.5342 163.563 85.7435 159.358 85.3847 153.902C85.2556 151.953 85.7186 150.099 86.616 148.484L68.0014 133.09L114.261 84.1228C112.619 79.9533 113.99 75.1681 117.826 72.3548C117.99 72.2223 118.161 72.0957 118.346 71.9816L145.45 55.1784C145.999 54.8385 146.599 54.6169 147.223 54.4961C148.397 54.1212 149.615 53.9371 150.825 53.9371ZM150.825 50.6064C149.273 50.6064 147.742 50.8339 146.271 51.2837C145.267 51.5037 144.33 51.8794 143.485 52.4026L116.379 69.2066C116.105 69.3765 115.839 69.5648 115.565 69.7814C111.175 73.0379 109.205 78.2571 110.311 83.2764L65.3341 130.885L62.9766 133.38L65.6439 135.586L82.3915 149.434C81.9196 150.946 81.7282 152.527 81.8324 154.107C82.2971 161.173 88.564 166.814 96.1182 166.987C96.2945 166.997 96.4708 167.002 96.6498 167.002C96.8172 167.002 96.9854 166.997 97.1537 166.987L104.667 166.553L106.181 166.467L129.605 165.116C130.624 165.055 131.612 164.826 132.551 164.437C138.784 162.431 142.837 156.776 142.43 150.612C142.085 145.388 138.614 140.897 133.644 138.872L146.244 125.533L148.701 132.39C149.019 133.282 149.51 134.118 150.162 134.873C152.896 138.676 157.431 140.94 162.335 140.94C163.915 140.94 165.482 140.7 166.992 140.227C173.254 138.263 177.336 132.621 176.979 126.462C177.01 125.498 176.864 124.558 176.545 123.663L166.21 94.8129C166.112 94.533 165.985 94.2414 165.828 93.9298C163.504 88.9064 158.231 85.6649 152.371 85.664C151.678 85.664 150.985 85.7107 150.3 85.8023L147.075 83.1356L159.706 75.3055C160.547 74.784 161.283 74.1242 161.893 73.3428C166.223 68.6917 166.712 61.8947 163.062 56.7437C160.337 52.9024 155.764 50.6064 150.825 50.6064Z" fill="black"/>
<path d="M150.824 53.9375C154.425 53.9375 157.955 55.5678 160.093 58.5869C162.951 62.6207 162.398 67.8282 159.1 71.2705C158.737 71.762 158.285 72.1919 157.737 72.5318L141.239 82.7595L149.28 89.4083C150.307 89.13 151.345 88.9967 152.368 88.9967C156.729 88.9967 160.808 91.4143 162.584 95.3081C162.677 95.4906 162.764 95.6772 162.834 95.8738L173.167 124.721C173.374 125.303 173.448 125.901 173.413 126.496C173.75 131.11 170.763 135.533 165.859 137.072C164.689 137.439 163.502 137.613 162.333 137.613C158.603 137.613 155.078 135.838 153.023 132.89C152.609 132.434 152.281 131.916 152.074 131.334L147.659 119.009L126.8 141.088L128.016 141.019C128.115 141.013 128.215 141.011 128.314 141.011C128.864 141.011 129.4 141.097 129.913 141.256C134.762 142.143 138.557 145.988 138.876 150.819C139.194 155.649 135.931 159.897 131.236 161.337C130.661 161.594 130.039 161.754 129.384 161.793L105.965 163.144L104.447 163.231L96.9289 163.665C96.8345 163.67 96.741 163.673 96.6475 163.673C96.522 163.673 96.3991 163.669 96.2745 163.66C90.5338 163.564 85.743 159.358 85.3842 153.903C85.2551 151.953 85.7181 150.1 86.6155 148.484L68.001 133.091L114.26 84.1232C112.619 79.9537 113.99 75.1685 117.825 72.3552C117.989 72.2227 118.161 72.0961 118.345 71.982L145.45 55.1788C145.998 54.8389 146.598 54.6173 147.222 54.4965C148.397 54.1208 149.615 53.9375 150.824 53.9375ZM150.824 57.2673C149.988 57.2673 149.165 57.3956 148.376 57.6489L148.162 57.718L147.941 57.7613C147.737 57.8005 147.564 57.8655 147.413 57.9588L120.31 74.7603C120.283 74.7778 120.231 74.8128 120.153 74.8761L120.088 74.9286L120.021 74.9777C117.436 76.8738 116.463 80.087 117.599 82.9736L118.334 84.8405L116.926 86.3309L73.0241 132.803L88.9713 145.991L91.0555 147.714L89.7726 150.022C89.1413 151.158 88.852 152.429 88.9366 153.699C89.177 157.352 92.4283 160.266 96.3377 160.331L96.4338 160.332L96.5291 160.339C96.5683 160.342 96.6075 160.343 96.6466 160.343L96.7063 160.342L104.227 159.907L105.748 159.82L129.164 158.469C129.341 158.458 129.519 158.414 129.702 158.332L129.909 158.24L130.128 158.172C133.398 157.17 135.534 154.231 135.322 151.024C135.111 147.818 132.604 145.142 129.228 144.524L129.008 144.484L128.795 144.417C128.627 144.366 128.47 144.341 128.313 144.341L128.234 144.343L127.014 144.412L118.447 144.9L124.132 138.882L144.991 116.803L149.073 112.482L151.032 117.95L155.447 130.275C155.504 130.433 155.597 130.582 155.734 130.732L155.88 130.893L156.003 131.07C157.384 133.051 159.81 134.281 162.332 134.281C163.142 134.281 163.948 134.158 164.727 133.913C167.984 132.891 170.095 129.934 169.861 126.723L169.845 126.515L169.858 126.308C169.87 126.11 169.848 125.936 169.79 125.775L159.459 96.9301C159.451 96.9085 159.433 96.861 159.376 96.7519L159.34 96.6827L159.309 96.6127C158.121 94.0085 155.397 92.3257 152.367 92.3257C151.661 92.3257 150.954 92.4199 150.268 92.6056L148.389 93.1138L146.923 91.9017L138.883 85.2529L135.407 82.3788L139.275 79.9812L155.772 69.7535C155.922 69.6602 156.053 69.536 156.174 69.3728L156.302 69.2003L156.451 69.0445C158.747 66.6478 159.026 63.103 157.128 60.4238C155.726 58.4486 153.37 57.2673 150.824 57.2673Z" fill="#262626"/>
<path d="M70.4114 140.308C70.2512 140.308 70.0936 140.303 69.9333 140.294C63.3344 140.185 57.7842 135.21 57.3729 128.977C56.9633 122.764 61.7861 117.21 68.3619 116.303C68.6522 116.249 68.9389 116.216 69.2202 116.2L101.671 114.327C101.806 114.318 101.945 114.315 102.081 114.315C102.766 114.315 103.453 114.414 104.126 114.612C109.835 115.705 114.06 120.243 114.419 125.686C114.779 131.128 111.189 136.109 105.678 137.852C104.902 138.186 104.086 138.378 103.256 138.425L70.8058 140.298C70.6705 140.304 70.5414 140.308 70.4114 140.308Z" fill="#333333"/>
<path d="M102.081 115.981C102.631 115.981 103.166 116.069 103.679 116.228C108.527 117.116 112.323 120.96 112.64 125.789C112.957 130.618 109.697 134.87 105.002 136.308C104.425 136.566 103.804 136.726 103.147 136.764L70.6936 138.636C70.5983 138.641 70.5022 138.643 70.4078 138.643L70.0401 138.632C64.2985 138.535 59.5078 134.33 59.1481 128.875C58.7884 123.421 62.9907 118.698 68.677 117.941C68.8889 117.902 69.1044 117.874 69.3261 117.861L101.78 115.989C101.879 115.984 101.981 115.981 102.081 115.981ZM102.081 112.65C101.908 112.65 101.733 112.655 101.559 112.666L69.1062 114.538C68.7776 114.556 68.4402 114.596 68.0859 114.657C60.6109 115.696 55.1301 122.014 55.5949 129.08C56.0614 136.154 62.3407 141.799 69.9048 141.962L70.4069 141.975C70.5725 141.975 70.7381 141.971 70.9046 141.961L103.366 140.089C104.375 140.031 105.366 139.803 106.312 139.411C112.545 137.409 116.6 131.753 116.194 125.585C115.788 119.417 111.022 114.272 104.572 113C103.755 112.768 102.917 112.65 102.081 112.65Z" fill="black"/>
<path d="M102.082 115.98C102.631 115.98 103.166 116.068 103.679 116.227C108.528 117.115 112.324 120.959 112.641 125.788C112.958 130.618 109.697 134.87 105.002 136.308C104.425 136.565 103.804 136.726 103.147 136.763L70.6939 138.635C70.5987 138.64 70.5025 138.643 70.4081 138.643L70.0405 138.632C64.2989 138.534 59.5081 134.329 59.1484 128.875C58.7887 123.421 62.991 118.697 68.6774 117.941C68.8893 117.902 69.1047 117.873 69.3264 117.861L101.78 115.989C101.88 115.984 101.981 115.98 102.082 115.98ZM102.082 119.311L102 119.314L69.5445 121.186C69.5045 121.187 69.4502 121.193 69.3638 121.209L69.2712 121.226L69.1777 121.239C65.3058 121.754 62.4604 125.019 62.7007 128.671C62.9411 132.323 66.1943 135.236 70.1045 135.302L70.1802 135.303L70.2559 135.307C70.3066 135.31 70.3565 135.312 70.4081 135.312L70.4811 135.31L102.928 133.438C103.109 133.428 103.285 133.383 103.472 133.299L103.678 133.208L103.894 133.141C107.164 132.141 109.299 129.201 109.088 125.992C108.877 122.784 106.371 120.113 102.994 119.494L102.771 119.454L102.555 119.387C102.39 119.336 102.235 119.311 102.082 119.311Z" fill="#262626"/>
<path d="M66.6056 129.391C51.5221 129.391 36.9851 124.239 25.6702 114.882C13.294 104.646 5.91694 90.5141 4.90199 75.088C3.88704 59.6619 9.34908 44.789 20.2901 33.21C32.0243 20.7888 48.9206 13.666 66.6519 13.666C81.7338 13.666 96.2716 18.8178 107.584 28.1732C119.962 38.4093 127.338 52.5408 128.355 67.9669C129.371 83.393 123.908 98.2675 112.967 109.846C101.234 122.269 84.3352 129.391 66.6056 129.391Z" fill="#333333"/>
<path d="M66.6497 15.3306C80.786 15.3306 94.9784 19.9725 106.404 29.4205C131.26 49.9742 133.6 85.4891 111.631 108.744C99.762 121.309 83.2192 127.725 66.6034 127.725C52.4644 127.725 38.2747 123.084 26.8476 113.635C1.99201 93.0801 -0.347716 57.566 21.6215 34.3115C33.492 21.7462 50.0312 15.3306 66.6497 15.3306ZM66.6497 12C48.41 12 31.0249 19.3286 18.955 32.1063C7.69978 44.0202 2.07747 59.3213 3.12359 75.1914C4.16881 91.0615 11.7569 105.6 24.491 116.131C36.13 125.756 51.0862 131.057 66.6043 131.057C84.844 131.057 102.228 123.729 114.298 110.951C125.553 99.0374 131.176 83.7355 130.13 67.8653C129.083 51.9952 121.495 37.4555 108.761 26.9254C97.1223 17.3009 82.1669 12 66.6497 12Z" fill="black"/>
<path d="M66.6495 15.3311C80.7858 15.3311 94.9782 19.973 106.404 29.4209C131.26 49.9746 133.6 85.4895 111.631 108.745C99.7601 121.31 83.2208 127.726 66.6032 127.726C52.466 127.726 38.2727 123.083 26.8474 113.635C1.99179 93.0805 -0.347935 57.5664 21.6213 34.3119C33.4918 21.7466 50.031 15.3311 66.6495 15.3311ZM66.6495 18.6617C50.4486 18.6617 35.008 25.1705 24.2878 36.5187C14.2923 47.0988 9.29855 60.688 10.2271 74.782C11.1557 88.876 17.8954 101.789 29.2041 111.141C39.5405 119.689 52.8221 124.397 66.6032 124.397C82.8041 124.397 98.2439 117.888 108.964 106.541C118.96 95.9597 123.953 82.3705 123.025 68.2765C122.096 54.1825 115.356 41.2698 104.047 31.9176C93.7104 23.3694 80.4288 18.6617 66.6495 18.6617Z" fill="#262626"/>
<path d="M69.1868 115.554C63.1087 115.554 57.2051 114.431 51.6398 112.213L49.2217 111.251L51.4786 109.991C62.676 103.746 73.6001 95.1489 83.0685 85.1278C92.5369 75.1067 100.31 63.9102 105.561 52.7444L106.619 50.4951L107.937 52.6211C117.632 68.2563 115.55 87.862 102.753 101.409C94.2588 110.398 82.0242 115.554 69.1868 115.554Z" fill="#F0D0B4"/>
<path d="M106.785 53.2395C115.922 67.9725 114.475 87.1091 101.756 100.572C93.1688 109.661 81.2093 114.298 69.1883 114.298C63.4058 114.298 57.6063 113.224 52.1657 111.057C63.1868 104.909 74.1634 96.4338 84.0707 85.947C93.9781 75.4602 101.617 64.227 106.785 53.2395ZM106.458 47.7354L104.342 52.2331C99.1427 63.2873 91.4416 74.373 82.0702 84.2925C72.6988 94.212 61.8825 102.728 50.7981 108.911L46.2852 111.428L51.1195 113.354C56.8513 115.638 62.9313 116.795 69.1883 116.795C82.4103 116.795 95.0091 111.484 103.755 102.225C116.934 88.2763 119.079 68.0866 109.095 51.9849L106.458 47.7354Z" fill="black"/>
<path d="M106.785 53.2402C115.921 67.9732 114.474 87.1098 101.755 100.572C93.1681 109.662 81.2086 114.299 69.1877 114.299C63.4052 114.299 57.6057 113.225 52.165 111.057C63.1862 104.909 74.1628 96.4345 84.0701 85.9477C93.9774 75.4609 101.616 64.2277 106.785 53.2402ZM106.856 58.981C101.582 68.9054 94.4671 78.7132 86.0688 87.6022C77.6706 96.4911 68.1416 104.302 58.2654 110.417C61.8035 111.337 65.4582 111.801 69.1868 111.801C80.8792 111.801 92.0197 107.106 99.7547 98.9187C110.212 87.8496 112.814 72.3377 106.856 58.981Z" fill="#DFB28B"/>
<path d="M89.0499 97.6016C89.0499 96.8287 88.7218 96.0875 88.1377 95.541C87.5537 94.9945 86.7616 94.6875 85.9356 94.6875C85.1096 94.6875 84.3175 94.9945 83.7334 95.541C83.1494 96.0875 82.8213 96.8287 82.8213 97.6016C82.8213 98.3745 83.1494 99.1157 83.7334 99.6622C84.3175 100.209 85.1096 100.516 85.9356 100.516C86.7616 100.516 87.5537 100.209 88.1377 99.6622C88.7218 99.1157 89.0499 98.3745 89.0499 97.6016Z" fill="#231F20"/>
<path d="M99.7696 86.2549C99.7696 85.4821 99.4415 84.7409 98.8574 84.1944C98.2734 83.6479 97.4812 83.3408 96.6553 83.3408C95.8293 83.3408 95.0372 83.6479 94.4532 84.1944C93.8691 84.7409 93.541 85.4821 93.541 86.2549C93.541 87.0278 93.8691 87.769 94.4532 88.3155C95.0372 88.862 95.8293 89.1691 96.6553 89.1691C97.4812 89.1691 98.2734 88.862 98.8574 88.3155C99.4415 87.769 99.7696 87.0278 99.7696 86.2549Z" fill="#231F20"/>
</svg>
