<svg width="180" height="180" viewBox="0 0 180 180" fill="none" xmlns="http://www.w3.org/2000/svg">
<g clip-path="url(#clip0)">
<path d="M153.248 169.27C158.793 169.27 163.644 165.783 165.085 160.778C165.37 160.074 165.519 159.347 165.519 158.614V144.149V129.683V99.9152V98.3307H163.825H96.4998C96.4931 95.3211 95.2189 92.3915 92.9194 90.2391C90.6038 88.0747 87.5263 86.8809 84.2541 86.8809C81.3493 86.8809 78.5384 87.8458 76.3279 89.5974C76.1204 89.7471 75.9198 89.9111 75.7284 90.0877L53.8649 110.543C53.3078 111.065 52.8599 111.676 52.534 112.366C49.7722 116.857 50.5681 122.531 54.488 126.197C56.8018 128.36 59.876 129.552 63.1482 129.552C65.3004 129.552 67.4161 129.024 69.2711 128.024C70.0136 127.712 70.6681 127.294 71.2192 126.775L77.6791 120.732V139.087L70.1093 146.169C69.5505 146.695 69.1035 147.307 68.7767 147.995C66.0183 152.486 66.8159 158.158 70.7341 161.823C73.0463 163.986 76.1204 165.176 79.3927 165.176C81.5423 165.176 83.6546 164.649 85.5122 163.652C86.2504 163.345 86.9066 162.926 87.4637 162.405L105.283 145.733H140.979V158.614C140.979 159.347 141.127 160.074 141.412 160.777C142.854 165.783 147.705 169.27 153.248 169.27Z" fill="#333333"/>
<path d="M84.2542 88.4632C81.8116 88.4632 79.3683 89.2506 77.3947 90.8232C77.2322 90.9404 77.0739 91.0672 76.9249 91.2058L55.0613 111.661C54.6193 112.074 54.2849 112.555 54.0462 113.077C51.6679 116.869 52.2056 121.82 55.6844 125.074C57.7468 127.004 60.4459 127.965 63.1467 127.965C65.0008 127.965 66.8566 127.512 68.5067 126.606C69.0647 126.383 69.5786 126.07 70.0205 125.657L79.3716 116.908V139.742L71.3066 147.287C70.8655 147.7 70.531 148.181 70.2931 148.702C67.9158 152.495 68.4525 157.446 71.9314 160.7C73.9929 162.629 76.692 163.59 79.3928 163.59C81.2478 163.59 83.1036 163.137 84.7537 162.23C85.3117 162.009 85.8256 161.696 86.2667 161.283L104.582 144.146H142.672V158.611C142.672 159.195 142.799 159.756 143.025 160.283C144.21 164.537 148.331 167.683 153.25 167.683C158.169 167.683 162.291 164.537 163.475 160.283C163.701 159.756 163.828 159.195 163.828 158.611V144.146V129.681V99.9138H94.678C95.1936 96.8915 94.2149 93.6886 91.7232 91.3579C89.66 89.4273 86.9575 88.4632 84.2542 88.4632ZM84.2542 85.2959C87.9794 85.2959 91.4819 86.6537 94.1158 89.1191C96.3298 91.1884 97.7081 93.8906 98.0874 96.7466H163.828H167.213V99.9138V129.682V144.148V158.613C167.213 159.514 167.04 160.406 166.699 161.267C165.032 166.92 159.531 170.853 153.251 170.853C146.971 170.853 141.47 166.921 139.804 161.267C139.462 160.404 139.289 159.512 139.289 158.613V147.315H105.984L88.6601 163.524C87.9803 164.162 87.1819 164.678 86.2878 165.06C84.1916 166.171 81.8125 166.759 79.3928 166.759C75.6701 166.759 72.1701 165.403 69.5379 162.94C65.0973 158.787 64.1787 152.366 67.274 147.264C67.6829 146.431 68.2333 145.689 68.9114 145.052L75.9885 138.431V124.554L72.4148 127.898C71.7341 128.534 70.9383 129.05 70.0459 129.433C67.9488 130.546 65.5689 131.133 63.1483 131.133C59.4248 131.133 55.924 129.776 53.2926 127.313C48.8512 123.16 47.9326 116.74 51.0279 111.64C51.4368 110.805 51.9888 110.06 52.6704 109.422L74.534 88.967C74.7566 88.7587 74.9954 88.5614 75.2612 88.3657C77.7723 86.386 80.9633 85.2959 84.2542 85.2959Z" fill="black"/>
<path d="M84.2543 88.4639C81.8117 88.4639 79.3683 89.2513 77.3957 90.8239C77.2331 90.9411 77.0748 91.0679 76.9258 91.2065L55.0622 111.661C54.6202 112.075 54.2858 112.556 54.0471 113.078C51.6689 116.869 52.2065 121.821 55.6853 125.074C57.7477 127.005 60.4468 127.966 63.1476 127.966C65.0017 127.966 66.8576 127.513 68.5077 126.607C69.0656 126.383 69.5795 126.07 70.0214 125.657L79.3726 116.908V139.742L71.3075 147.287C70.8664 147.701 70.532 148.182 70.2941 148.702C67.9167 152.495 68.4535 157.447 71.9323 160.7C73.9947 162.63 76.693 163.591 79.3937 163.591C81.2487 163.591 83.1045 163.137 84.7546 162.231C85.3126 162.01 85.8265 161.697 86.2676 161.283L104.583 144.147H142.672V158.612C142.672 159.196 142.799 159.757 143.025 160.284C144.21 164.538 148.331 167.684 153.25 167.684C158.169 167.684 162.291 164.538 163.475 160.284C163.701 159.757 163.828 159.196 163.828 158.612V144.147V129.681V99.9145H94.6781C95.1937 96.8922 94.215 93.6893 91.7233 91.3586C89.6601 89.428 86.9576 88.4639 84.2543 88.4639ZM84.2543 91.6304C86.1719 91.6304 87.9744 92.3291 89.3299 93.5974C90.974 95.1351 91.7047 97.2551 91.3364 99.4147L90.7107 103.082H94.6789H160.443V129.683V144.149V158.614C160.443 158.774 160.408 158.934 160.335 159.105L160.254 159.292L160.2 159.487C159.376 162.449 156.517 164.518 153.251 164.518C149.985 164.518 147.126 162.449 146.302 159.487L146.248 159.292L146.168 159.107C146.094 158.934 146.058 158.773 146.058 158.614V144.149V140.981H142.673H104.582H103.18L102.189 141.909L83.8733 159.045C83.7522 159.159 83.6091 159.247 83.4322 159.317L83.2299 159.398L83.0402 159.502C81.9387 160.108 80.6772 160.427 79.392 160.427C77.4769 160.427 75.6778 159.729 74.3249 158.463C72.0144 156.301 71.5572 152.948 73.2133 150.306L73.3208 150.134L73.4046 149.952C73.4833 149.78 73.5807 149.64 73.7043 149.525L81.766 141.983L82.7574 141.056V139.744V116.91V109.265L76.98 114.67L67.6288 123.419C67.5086 123.533 67.3596 123.624 67.175 123.698L66.9795 123.777L66.7957 123.877C65.6943 124.483 64.4336 124.802 63.1484 124.802C61.2333 124.802 59.4334 124.104 58.0796 122.838C55.7683 120.676 55.3111 117.323 56.9671 114.684L57.0763 114.509L57.161 114.323C57.2381 114.155 57.3346 114.017 57.4556 113.904L79.3192 93.4493C79.3539 93.4168 79.4022 93.378 79.4632 93.3336L79.5283 93.2861L79.591 93.2362C80.888 92.2008 82.5441 91.6304 84.2543 91.6304Z" fill="#262626"/>
<path d="M137.617 129.55C139.767 129.55 141.881 129.022 143.738 128.023C144.477 127.714 145.132 127.296 145.685 126.778L167.548 106.322C167.749 106.133 167.932 105.936 168.1 105.73C172.165 101.268 171.875 94.4375 167.387 90.2379C165.073 88.0728 161.995 86.8789 158.723 86.8789C155.807 86.8789 152.98 87.8518 150.765 89.6192C150.609 89.7293 150.397 89.8996 150.196 90.0874L128.332 110.542C127.777 111.063 127.331 111.673 127.005 112.358C124.239 116.851 125.035 122.526 128.959 126.194C131.269 128.359 134.345 129.55 137.617 129.55Z" fill="#333333"/>
<path d="M158.721 88.4632C156.278 88.4624 153.835 89.2498 151.862 90.8232C151.699 90.9404 151.541 91.0672 151.393 91.2058L129.528 111.661C129.086 112.074 128.752 112.555 128.513 113.077C126.135 116.869 126.672 121.82 130.151 125.074C132.213 127.004 134.913 127.965 137.613 127.965C139.468 127.965 141.323 127.512 142.974 126.606C143.531 126.383 144.045 126.07 144.487 125.657L166.352 105.2C166.501 105.062 166.635 104.914 166.761 104.761C170.302 100.872 170.118 95.0314 166.19 91.3571C164.126 89.4273 161.423 88.4632 158.721 88.4632ZM158.72 85.2959H158.721C162.446 85.2959 165.949 86.6537 168.583 89.1191C173.672 93.8787 174.02 101.613 169.389 106.759C169.177 107.01 168.964 107.237 168.738 107.447L146.88 127.897C146.199 128.533 145.403 129.049 144.511 129.433C142.414 130.545 140.033 131.133 137.613 131.133C133.89 131.133 130.39 129.776 127.758 127.313C123.316 123.159 122.398 116.74 125.493 111.639C125.902 110.804 126.454 110.06 127.136 109.421L149 88.9662C149.22 88.7595 149.459 88.5614 149.727 88.3649C152.238 86.386 155.429 85.2959 158.72 85.2959Z" fill="black"/>
<path d="M158.722 88.4639C156.279 88.4631 153.836 89.2505 151.863 90.8239C151.701 90.9411 151.542 91.0679 151.394 91.2065L129.53 111.661C129.088 112.075 128.753 112.556 128.515 113.078C126.136 116.87 126.674 121.821 130.153 125.074C132.214 127.004 134.914 127.966 137.615 127.966C139.469 127.966 141.324 127.513 142.974 126.607C143.532 126.383 144.046 126.07 144.488 125.658L166.353 105.201C166.502 105.062 166.636 104.915 166.761 104.762C170.303 100.873 170.118 95.0321 166.191 91.3578C164.128 89.428 161.425 88.4639 158.722 88.4639ZM158.722 91.6304C160.64 91.6304 162.443 92.3299 163.798 93.5974C166.428 96.0573 166.599 100.06 164.186 102.709L164.131 102.769L164.079 102.831L163.967 102.955L142.096 123.418C141.975 123.531 141.826 123.622 141.642 123.696L141.446 123.775L141.262 123.876C140.161 124.481 138.9 124.8 137.616 124.8C135.7 124.8 133.9 124.102 132.547 122.836C130.236 120.675 129.779 117.322 131.435 114.682L131.544 114.508L131.629 114.322C131.706 114.153 131.802 114.016 131.923 113.903L153.788 93.4477C153.813 93.4239 153.856 93.3867 153.931 93.332L153.996 93.2845L154.059 93.2346C155.356 92.2007 157.012 91.6304 158.722 91.6304Z" fill="#262626"/>
<path d="M119.497 117.628C151.925 117.628 178.307 92.9434 178.307 62.6048C178.307 32.2661 151.925 7.5791 119.497 7.5791C87.0688 7.5791 60.6858 32.2637 60.6858 62.6048C60.6858 92.9458 87.0679 117.628 119.497 117.628Z" fill="#333333"/>
<path d="M119.497 9.16649C87.951 9.16649 62.3783 33.0922 62.3783 62.6069C62.3783 92.1217 87.951 116.047 119.497 116.047C151.042 116.047 176.615 92.1217 176.615 62.6069C176.615 33.0922 151.042 9.16649 119.497 9.16649ZM119.497 6C152.858 6 180 31.3937 180 62.6077C180 93.8218 152.858 119.215 119.497 119.215C86.1349 119.215 58.9943 93.821 58.9943 62.6077C58.9943 31.3945 86.1349 6 119.497 6Z" fill="black"/>
<path d="M119.497 9.16602C87.9511 9.16602 62.3784 33.0917 62.3784 62.6064C62.3784 92.1211 87.9511 116.047 119.497 116.047C151.043 116.047 176.615 92.1211 176.615 62.6064C176.615 33.0917 151.043 9.16602 119.497 9.16602ZM119.497 12.3333C149.126 12.3333 173.231 34.886 173.231 62.6064C173.231 90.3267 149.126 112.879 119.497 112.879C89.8679 112.879 65.7633 90.3267 65.7633 62.6064C65.7633 34.886 89.8679 12.3333 119.497 12.3333Z" fill="#262626"/>
<path d="M119.497 105.5C137.872 105.5 154.116 94.5434 159.918 78.234L160.706 76.0166L158.326 76.7272C146.51 80.2581 133.085 82.1246 119.497 82.1246C105.909 82.1246 92.4849 80.2581 80.6692 76.7272L78.2893 76.0166L79.0775 78.234C84.8812 94.5434 101.124 105.5 119.497 105.5Z" fill="#F0D0B4"/>
<path d="M80.2804 77.8584C85.7471 93.2258 101.232 104.314 119.495 104.314C137.758 104.314 153.244 93.2266 158.71 77.8584C147.088 81.3323 133.721 83.3136 119.495 83.3136C105.269 83.3136 91.903 81.3323 80.2804 77.8584ZM76.2944 74.1738L81.0525 75.5959C92.7463 79.0911 106.039 80.9386 119.495 80.9386C132.951 80.9386 146.244 79.0911 157.938 75.5959L162.696 74.1738L161.119 78.6094C155.144 95.4044 138.417 106.689 119.495 106.689C100.573 106.689 83.8464 95.4044 77.8717 78.6094L76.2944 74.1738Z" fill="black"/>
<path d="M80.281 77.8594C85.7477 93.2268 101.233 104.315 119.496 104.315C137.758 104.315 153.244 93.2276 158.711 77.8594C147.088 81.3332 133.722 83.3146 119.496 83.3146C105.269 83.3146 91.9036 81.3332 80.281 77.8594ZM154.383 81.5226C147.963 93.9033 134.51 101.939 119.495 101.939C104.48 101.939 91.0282 93.9025 84.6073 81.5226C95.4874 84.2557 107.437 85.6896 119.495 85.6896C131.552 85.6896 143.503 84.2565 154.383 81.5226Z" fill="#DFB28B"/>
<path d="M124.236 91.8972C124.236 91.1622 124.548 90.4573 125.104 89.9376C125.659 89.4179 126.412 89.126 127.198 89.126C127.983 89.126 128.736 89.4179 129.292 89.9376C129.847 90.4573 130.159 91.1622 130.159 91.8972C130.159 92.6321 129.847 93.337 129.292 93.8567C128.736 94.3764 127.983 94.6684 127.198 94.6684C126.412 94.6684 125.659 94.3764 125.104 93.8567C124.548 93.337 124.236 92.6321 124.236 91.8972Z" fill="#231F20"/>
<path d="M108.839 91.8972C108.839 91.1622 109.151 90.4573 109.706 89.9376C110.261 89.4179 111.015 89.126 111.8 89.126C112.586 89.126 113.339 89.4179 113.894 89.9376C114.45 90.4573 114.762 91.1622 114.762 91.8972C114.762 92.6321 114.45 93.337 113.894 93.8567C113.339 94.3764 112.586 94.6684 111.8 94.6684C111.015 94.6684 110.261 94.3764 109.706 93.8567C109.151 93.337 108.839 92.6321 108.839 91.8972Z" fill="#231F20"/>
<path d="M20.4499 173.645H23.7441C24.954 173.645 25.9395 172.723 25.9395 171.591V143.274C25.9395 142.142 24.954 141.22 23.7441 141.22H20.4499C19.2383 141.22 18.2529 142.142 18.2529 143.274V171.591C18.2529 172.723 19.2383 173.645 20.4499 173.645Z" fill="#8A5D3B"/>
<path d="M20.4519 142.01C19.7102 142.01 19.1023 142.578 19.1023 143.273V171.588C19.1023 172.283 19.7094 172.851 20.4519 172.851H23.7461C24.4878 172.851 25.0957 172.283 25.0957 171.588V143.273C25.0957 142.578 24.4886 142.01 23.7461 142.01H20.4519ZM20.4519 140.426H23.7461C25.4233 140.426 26.7881 141.703 26.7881 143.273V171.588C26.7881 173.157 25.4233 174.434 23.7461 174.434H20.4519C18.7747 174.434 17.4099 173.158 17.4099 171.588V143.273C17.4099 141.703 18.7747 140.426 20.4519 140.426Z" fill="#231F20"/>
<path d="M20.4538 142.009C19.7122 142.009 19.1043 142.577 19.1043 143.272V171.588C19.1043 172.282 19.7113 172.85 20.4538 172.85H23.7481C24.4898 172.85 25.0977 172.282 25.0977 171.588V143.272C25.0977 142.577 24.4906 142.009 23.7481 142.009H20.4538ZM20.7967 143.593H23.4052V171.267H20.7967V143.593Z" fill="#603813"/>
<path d="M63.7864 108.417C64.622 108.417 65.4 107.963 65.7658 107.262L67.2059 104.49C67.4625 103.998 67.4955 103.441 67.305 102.92C67.1145 102.4 66.7166 101.982 66.1917 101.743L38.9722 89.3614C38.6725 89.2252 38.3508 89.1562 38.0164 89.1562C37.1807 89.1562 36.4027 89.6086 36.0369 90.3105L34.5968 93.0833C34.0685 94.0997 34.5223 95.334 35.6111 95.8299L62.8305 108.212C63.1311 108.347 63.4528 108.417 63.7864 108.417Z" fill="#8A5D3B"/>
<path d="M38.0159 89.9459C37.5146 89.9459 37.0312 90.2082 36.7984 90.6558L35.3583 93.427C35.0331 94.0512 35.3142 94.811 35.9814 95.1152L63.1999 107.497C63.3887 107.582 63.5886 107.624 63.7858 107.624C64.287 107.624 64.7705 107.361 65.0033 106.914L66.4443 104.142C66.7685 103.517 66.4883 102.758 65.8203 102.454L38.6017 90.0727C38.4138 89.9871 38.214 89.9459 38.0159 89.9459ZM38.0159 88.3623C38.473 88.3623 38.9319 88.4613 39.3425 88.6491L66.5611 101.029C68.0698 101.716 68.6997 103.422 67.9665 104.834L66.5255 107.606C66.0201 108.579 64.9449 109.207 63.7867 109.207C63.3295 109.207 62.8706 109.108 62.46 108.921L35.2423 96.5404C34.5125 96.2077 33.9647 95.6293 33.6989 94.9092C33.433 94.1891 33.4821 93.4167 33.8368 92.7346L35.277 89.9642C35.7816 88.9913 36.8568 88.3623 38.0159 88.3623Z" fill="#231F20"/>
<path d="M38.0157 89.9453C37.5145 89.9453 37.0311 90.2076 36.7983 90.6552L35.3581 93.4263C35.033 94.0505 35.3141 94.8103 35.9812 95.1145L63.1998 107.496C63.3886 107.581 63.5884 107.623 63.7857 107.623C64.2869 107.623 64.7703 107.36 65.0031 106.913L66.4441 104.141C66.7684 103.517 66.4882 102.757 65.8202 102.453L38.6016 90.0721C38.4136 89.9865 38.2138 89.9453 38.0157 89.9453ZM38.1707 91.6367L64.7729 103.737L63.6316 105.932L37.0302 93.8311L38.1707 91.6367Z" fill="#603813"/>
<path d="M21.8451 140C24.1022 140 25.9395 138.283 25.9395 136.171C25.9395 134.059 24.1014 132.341 21.8451 132.341C19.5888 132.341 17.7525 134.06 17.7525 136.171C17.7525 138.282 19.588 140 21.8451 140Z" fill="#CCCCCC"/>
<path d="M21.8467 133.132C20.0543 133.132 18.6007 134.491 18.6007 136.169C18.6007 137.847 20.0543 139.207 21.8467 139.207C23.639 139.207 25.0927 137.846 25.0927 136.169C25.0927 134.492 23.6399 133.132 21.8467 133.132ZM21.8467 131.548C24.5695 131.548 26.7852 133.622 26.7852 136.169C26.7852 138.717 24.5695 140.79 21.8467 140.79C19.1239 140.79 16.9082 138.717 16.9082 136.169C16.9082 133.622 19.1239 131.548 21.8467 131.548Z" fill="#4D4D4D"/>
<path d="M19.9573 129.765C22.2144 129.765 24.0508 128.047 24.0508 125.936C24.0508 123.825 22.2144 122.107 19.9573 122.107C17.7002 122.107 15.8656 123.824 15.8656 125.936C15.8656 128.048 17.7011 129.765 19.9573 129.765Z" fill="#CCCCCC"/>
<path d="M19.9581 122.896C18.1658 122.896 16.7121 124.256 16.7121 125.933C16.7121 127.611 18.1658 128.971 19.9581 128.971C21.7504 128.971 23.2041 127.611 23.2041 125.933C23.2041 124.256 21.7513 122.896 19.9581 122.896ZM19.9581 121.312C22.6809 121.312 24.8965 123.386 24.8965 125.933C24.8965 128.481 22.6809 130.554 19.9581 130.554C17.2353 130.554 15.0197 128.481 15.0197 125.933C15.0197 123.386 17.2353 121.312 19.9581 121.312Z" fill="#4D4D4D"/>
<path d="M14.4035 120.956C16.6606 120.956 18.4961 119.238 18.4961 117.128C18.4961 115.017 16.6606 113.299 14.4035 113.299C12.1464 113.299 10.3117 115.017 10.3117 117.128C10.3117 119.238 12.1472 120.956 14.4035 120.956Z" fill="#CCCCCC"/>
<path d="M14.4044 114.087C12.6121 114.087 11.1584 115.446 11.1584 117.124C11.1584 118.802 12.6121 120.161 14.4044 120.161C16.1967 120.161 17.6504 118.801 17.6504 117.124C17.6504 115.447 16.1975 114.087 14.4044 114.087ZM14.4044 112.503C17.1271 112.503 19.3428 114.576 19.3428 117.124C19.3428 119.672 17.1271 121.745 14.4044 121.745C11.6816 121.745 9.46596 119.672 9.46596 117.124C9.46596 114.576 11.6816 112.503 14.4044 112.503Z" fill="#4D4D4D"/>
<path d="M8.34209 112.344C10.5984 112.344 12.4355 110.625 12.4355 108.514C12.4355 106.403 10.5984 104.684 8.34209 104.684C6.08582 104.684 4.24949 106.403 4.24949 108.514C4.24949 110.625 6.08582 112.344 8.34209 112.344Z" fill="#CCCCCC"/>
<path d="M8.3409 105.475C6.54857 105.475 5.09491 106.835 5.09491 108.513C5.09491 110.191 6.54857 111.55 8.3409 111.55C10.1332 111.55 11.5869 110.19 11.5869 108.513C11.5869 106.835 10.1332 105.475 8.3409 105.475ZM8.3409 103.892C11.0637 103.892 13.2793 105.965 13.2793 108.513C13.2793 111.06 11.0637 113.134 8.3409 113.134C5.61813 113.134 3.40248 111.06 3.40248 108.513C3.40248 105.965 5.61728 103.892 8.3409 103.892Z" fill="#4D4D4D"/>
<path d="M4.9383 102.687C7.19462 102.687 9.0293 100.97 9.0293 98.8589C9.0293 96.7476 7.19462 95.0293 4.9383 95.0293C2.68199 95.0293 0.84562 96.7476 0.84562 98.8589C0.84562 100.97 2.68199 102.687 4.9383 102.687Z" fill="#CCCCCC"/>
<path d="M4.93854 95.819C3.14622 95.819 1.69255 97.1785 1.69255 98.8564C1.69255 100.534 3.14622 101.894 4.93854 101.894C6.73086 101.894 8.18453 100.534 8.18453 98.8564C8.18453 97.1793 6.73171 95.819 4.93854 95.819ZM4.93854 94.2354C7.66131 94.2354 9.87695 96.3086 9.87695 98.8564C9.87695 101.404 7.66131 103.477 4.93854 103.477C2.21577 103.477 0.000137329 101.404 0.000137329 98.8564C0.000137329 96.3086 2.21577 94.2354 4.93854 94.2354Z" fill="#4D4D4D"/>
<path d="M8.66333 93.2199C10.9196 93.2199 12.7568 91.5032 12.7568 89.3912C12.7568 87.2792 10.9196 85.5625 8.66333 85.5625C6.40703 85.5625 4.5715 87.28 4.5715 89.3912C4.5715 91.5024 6.40703 93.2199 8.66333 93.2199Z" fill="#CCCCCC"/>
<path d="M8.66511 86.3512C6.87279 86.3512 5.41913 87.7106 5.41913 89.3885C5.41913 91.0664 6.87279 92.4258 8.66511 92.4258C10.4574 92.4258 11.9111 91.0656 11.9111 89.3885C11.9111 87.7114 10.4574 86.3512 8.66511 86.3512ZM8.66511 84.7676C11.3879 84.7676 13.6035 86.8408 13.6035 89.3885C13.6035 91.9363 11.3879 94.0095 8.66511 94.0095C5.94234 94.0095 3.7267 91.9363 3.7267 89.3885C3.7267 86.8408 5.9415 84.7676 8.66511 84.7676Z" fill="#4D4D4D"/>
<path d="M19.0762 91.0094C21.3325 91.0094 23.168 89.2926 23.168 87.1822C23.168 85.0709 21.3316 83.3525 19.0762 83.3525C16.8199 83.3525 14.9836 85.0709 14.9836 87.1822C14.9836 89.2926 16.8191 91.0094 19.0762 91.0094Z" fill="#CCCCCC"/>
<path d="M19.0762 84.1413C17.2838 84.1413 15.8302 85.5007 15.8302 87.1787C15.8302 88.8566 17.2838 90.216 19.0762 90.216C20.8685 90.216 22.3222 88.8558 22.3222 87.1787C22.3222 85.5015 20.8694 84.1413 19.0762 84.1413ZM19.0762 82.5576C21.799 82.5576 24.0146 84.6309 24.0146 87.1787C24.0146 89.7265 21.799 91.7997 19.0762 91.7997C16.3534 91.7997 14.1377 89.7265 14.1377 87.1787C14.1377 84.6309 16.3534 82.5576 19.0762 82.5576Z" fill="#4D4D4D"/>
<path d="M29.8369 92.8956C32.094 92.8956 33.9287 91.178 33.9287 89.0667C33.9287 86.9555 32.094 85.2363 29.8369 85.2363C27.5797 85.2363 25.7434 86.9547 25.7434 89.0667C25.7434 91.1788 27.5806 92.8956 29.8369 92.8956Z" fill="#CCCCCC"/>
<path d="M29.837 86.028C28.0447 86.028 26.591 87.3875 26.591 89.0654C26.591 90.7433 28.0447 92.1028 29.837 92.1028C31.6293 92.1028 33.083 90.7425 33.083 89.0654C33.083 87.3883 31.6302 86.028 29.837 86.028ZM29.837 84.4443C32.5598 84.4443 34.7754 86.5176 34.7754 89.0654C34.7754 91.6132 32.5598 93.6864 29.837 93.6864C27.1142 93.6864 24.8986 91.6132 24.8986 89.0654C24.8986 86.5176 27.1142 84.4443 29.837 84.4443Z" fill="#4D4D4D"/>
</g>
<defs>
<clipPath id="clip0">
<rect width="180" height="180" fill="white"/>
</clipPath>
</defs>
</svg>
