<svg width="180" height="180" viewBox="0 0 180 180" fill="none" xmlns="http://www.w3.org/2000/svg">
<path d="M122.658 176.571C116.73 176.571 111.545 172.844 110.004 167.493C109.695 166.74 109.539 165.964 109.539 165.181V151.405H68.0926V165.181C68.0926 165.964 67.9369 166.74 67.6273 167.493C66.0874 172.844 60.9012 176.571 54.9735 176.571C49.0458 176.571 43.856 172.844 42.3161 167.491C42.0093 166.736 41.8554 165.96 41.8554 165.18V124.672L34.9446 131.139C34.3553 131.692 33.6564 132.138 32.8706 132.468C30.8818 133.539 28.6195 134.103 26.3174 134.103C22.8186 134.103 19.5298 132.829 17.0584 130.515C12.8671 126.593 12.0161 120.524 14.9691 115.725C15.3185 114.987 15.7965 114.334 16.394 113.777L39.7696 91.9073C39.9851 91.7049 40.2096 91.5236 40.4459 91.3525C42.7461 89.5186 45.7661 88.4775 48.8847 88.4775C52.3835 88.4775 55.6742 89.7532 58.1473 92.0691C60.6087 94.3689 61.9703 97.5006 61.9802 100.722H135.775V165.18C135.775 165.964 135.62 166.738 135.315 167.487C133.776 172.842 128.586 176.571 122.658 176.571Z" fill="#333333"/>
<path d="M48.8793 90.1797C51.7699 90.1797 54.6594 91.2114 56.8656 93.2749C59.5298 95.7669 60.5771 99.1899 60.024 102.424H133.963V165.187C133.963 165.812 133.828 166.411 133.586 166.975C132.32 171.523 127.912 174.887 122.654 174.887C117.395 174.887 112.986 171.523 111.721 166.975C111.479 166.411 111.343 165.812 111.343 165.187V149.721H66.2794V165.187C66.2794 165.812 66.1436 166.411 65.9019 166.975C64.6363 171.523 60.2286 174.887 54.97 174.887C49.7113 174.887 45.3036 171.523 44.0362 166.975C43.7954 166.411 43.6596 165.812 43.6596 165.187V120.594L33.661 129.95C33.1884 130.392 32.6389 130.726 32.0424 130.965C30.2789 131.934 28.2946 132.419 26.3121 132.419C23.4243 132.419 20.5374 131.389 18.3322 129.327C14.6134 125.848 14.0376 120.554 16.5805 116.5C16.8349 115.941 17.1925 115.427 17.6659 114.985L41.0443 93.1131C41.2027 92.964 41.372 92.8293 41.5458 92.7039C43.656 91.0217 46.2677 90.1797 48.8793 90.1797ZM48.8793 86.7939C45.3606 86.7939 41.9496 87.9578 39.2637 90.0746C38.9776 90.2847 38.7205 90.4973 38.4815 90.7218L15.1067 112.591C14.3771 113.274 13.7869 114.07 13.3505 114.963C10.0427 120.417 11.024 127.279 15.773 131.722C18.5875 134.354 22.3298 135.804 26.3121 135.804C28.8993 135.804 31.4449 135.177 33.6863 133.987C34.6405 133.577 35.4914 133.024 36.2183 132.345L40.0413 128.769V165.187C40.0413 166.148 40.2259 167.1 40.5899 168.022C42.3723 174.068 48.2547 178.274 54.97 178.274C61.6852 178.274 67.5658 174.069 69.3473 168.024C69.713 167.103 69.8986 166.149 69.8986 165.187V153.107H107.724V165.187C107.724 166.149 107.91 167.102 108.274 168.023C110.056 174.069 115.938 178.274 122.654 178.274C129.369 178.274 135.249 174.07 137.032 168.025C137.397 167.104 137.582 166.151 137.582 165.187V99.0366H63.6704C63.2658 95.9838 61.7911 93.0936 59.4247 90.8794C56.6076 88.245 52.8625 86.7939 48.8793 86.7939Z" fill="black"/>
<path d="M48.8805 90.1748C51.771 90.1748 54.6606 91.2065 56.8668 93.27C59.5309 95.7621 60.5783 99.1851 60.0252 102.419H133.964V134.249V149.716V165.183C133.964 165.807 133.829 166.407 133.587 166.97C132.321 171.519 127.913 174.883 122.655 174.883C117.396 174.883 112.988 171.519 111.722 166.97C111.48 166.407 111.344 165.807 111.344 165.183V149.716H66.2806V165.183C66.2806 165.807 66.1448 166.407 65.9031 166.97C64.6375 171.519 60.2298 174.883 54.9711 174.883C49.7125 174.883 45.3048 171.519 44.0374 166.97C43.7966 166.407 43.6608 165.807 43.6608 165.183V149.716V134.249V120.59L33.6622 129.946C33.1896 130.387 32.6402 130.722 32.0436 130.96C30.2801 131.93 28.2967 132.414 26.3133 132.414C23.4255 132.414 20.5386 131.385 18.3334 129.322C14.6146 125.843 14.0389 120.549 16.5817 116.495C16.8361 115.936 17.1937 115.423 17.6671 114.98L41.0455 93.1082C41.2039 92.9591 41.3732 92.8245 41.547 92.6991C43.6572 91.0168 46.2689 90.1748 48.8805 90.1748ZM48.8805 93.5614C47.0519 93.5614 45.2812 94.1704 43.8935 95.2759L43.8265 95.3292L43.7568 95.3792C43.6771 95.4368 43.6309 95.4758 43.6074 95.4987L20.2254 117.375C20.0951 117.497 19.9928 117.643 19.9104 117.822L19.8189 118.021L19.7022 118.209C17.9315 121.031 18.4203 124.615 20.8908 126.927C22.3383 128.282 24.2638 129.027 26.3115 129.027C27.6848 129.027 29.0327 128.685 30.2104 128.039L30.4069 127.931L30.616 127.847C30.8133 127.768 30.9727 127.67 31.103 127.548L41.1007 118.193L47.2782 112.413V120.588V134.247V149.715V165.181C47.2782 165.352 47.3163 165.527 47.3959 165.712L47.4801 165.909L47.5371 166.114C48.4198 169.282 51.4759 171.495 54.9684 171.495C58.4609 171.495 61.5171 169.283 62.3988 166.116L62.4568 165.907L62.5428 165.707C62.6215 165.523 62.6604 165.351 62.6604 165.181V149.715V146.328H66.2797H111.344H114.963V149.715V165.181C114.963 165.352 115.001 165.524 115.08 165.709L115.166 165.908L115.224 166.115C116.105 169.282 119.16 171.495 122.654 171.495C126.147 171.495 129.202 169.283 130.083 166.115L130.141 165.906L130.228 165.705C130.306 165.524 130.344 165.352 130.344 165.181V149.715V134.247V105.804H60.0243H55.7805L56.4503 101.883C56.845 99.5739 56.0638 97.3072 54.3067 95.663C52.8583 94.3085 50.931 93.5614 48.8805 93.5614Z" fill="#262626"/>
<path d="M105.939 134.108C102.44 134.108 99.1503 132.834 96.679 130.519C92.484 126.597 91.6349 120.521 94.596 115.716C94.9472 114.986 95.4225 114.335 96.0118 113.785L119.389 91.9125C119.603 91.7126 119.832 91.5262 120.067 91.3585C122.366 89.5237 125.388 88.4844 128.504 88.4844C132.003 88.4844 135.295 89.7575 137.769 92.0743C142.569 96.5637 142.879 103.867 138.479 108.703C138.348 108.861 138.159 109.068 137.95 109.264L114.562 131.145C113.973 131.698 113.273 132.145 112.486 132.473C110.501 133.544 108.239 134.108 105.939 134.108Z" fill="#333333"/>
<path d="M128.505 90.1748C131.395 90.1748 134.285 91.2065 136.491 93.27C140.691 97.1995 140.887 103.445 137.101 107.603C136.967 107.765 136.823 107.923 136.665 108.072L113.287 129.945C112.814 130.387 112.265 130.721 111.668 130.96C109.905 131.929 107.921 132.414 105.939 132.414C103.051 132.414 100.163 131.385 97.9588 129.322C94.24 125.843 93.6652 120.549 96.2071 116.495C96.4615 115.936 96.82 115.422 97.2925 114.98L120.67 93.1082C120.829 92.9591 120.998 92.8244 121.172 92.6991C123.281 91.0168 125.893 90.1748 128.505 90.1748ZM128.505 86.7891C124.985 86.7891 121.573 87.9538 118.888 90.0714C118.604 90.2807 118.348 90.4916 118.111 90.7135L94.7343 112.586C94.0037 113.269 93.4135 114.066 92.9772 114.958C89.6693 120.412 90.6516 127.275 95.4006 131.717C98.2141 134.349 101.957 135.8 105.94 135.8C108.527 135.8 111.072 135.173 113.313 133.983C114.267 133.573 115.117 133.022 115.845 132.342L139.225 110.467C139.465 110.241 139.688 110.006 139.91 109.743C144.866 104.241 144.495 95.9687 139.053 90.8762C136.233 88.2401 132.488 86.7891 128.505 86.7891Z" fill="black"/>
<path d="M128.506 90.1748C131.396 90.1748 134.287 91.2065 136.493 93.27C140.692 97.1995 140.889 103.445 137.103 107.603C136.969 107.765 136.824 107.923 136.666 108.073L113.288 129.946C112.815 130.387 112.266 130.721 111.669 130.96C109.906 131.929 107.922 132.414 105.94 132.414C103.052 132.414 100.164 131.385 97.96 129.322C94.2412 125.843 93.6663 120.549 96.2083 116.495C96.4627 115.936 96.8212 115.423 97.2937 114.98L120.671 93.1082C120.831 92.9591 120.999 92.8244 121.174 92.6991C123.282 91.0168 125.895 90.1748 128.506 90.1748ZM128.506 93.5614C126.678 93.5614 124.907 94.1704 123.52 95.2759L123.453 95.3292L123.384 95.38C123.319 95.4275 123.267 95.4681 123.23 95.5037L99.852 117.376C99.7217 117.499 99.6184 117.644 99.537 117.823L99.4455 118.022L99.3279 118.209C97.5581 121.032 98.0469 124.616 100.516 126.927C101.965 128.283 103.89 129.027 105.938 129.027C107.311 129.027 108.659 128.686 109.836 128.04L110.033 127.932L110.244 127.847C110.44 127.769 110.599 127.671 110.73 127.548L134.106 105.677C134.139 105.647 134.187 105.593 134.241 105.528L134.293 105.466L134.347 105.407C136.926 102.574 136.743 98.2948 133.932 95.6646C132.484 94.3085 130.556 93.5614 128.506 93.5614Z" fill="#262626"/>
<path d="M6.7145 144.602C4.16528 144.602 1.9293 142.911 1.40153 140.579L1.02313 138.925C0.402121 136.184 2.27692 133.482 5.20273 132.899L172.159 99.6686C172.53 99.5957 172.91 99.5576 173.286 99.5576C175.834 99.5576 178.07 101.249 178.599 103.58L178.975 105.233C179.276 106.557 179.006 107.911 178.215 109.055C177.423 110.198 176.208 110.979 174.796 111.26L7.84158 144.492C7.47133 144.565 7.09109 144.602 6.7145 144.602Z" fill="#8A5D3B"/>
<path d="M173.286 100.404C175.374 100.404 177.265 101.772 177.715 103.756L178.091 105.41C178.609 107.687 177.042 109.946 174.608 110.432L7.65187 143.664C7.33775 143.727 7.02364 143.756 6.71404 143.756C4.6256 143.756 2.73632 142.388 2.2855 140.404L1.90889 138.749C1.39108 136.472 2.95808 134.213 5.39233 133.728L172.349 100.497C172.663 100.435 172.977 100.404 173.286 100.404ZM173.287 98.7109C172.847 98.7109 172.404 98.755 171.972 98.8406L5.01576 132.072C1.60111 132.752 -0.586904 135.905 0.139116 139.102L0.515692 140.757C1.13399 143.476 3.74116 145.45 6.71404 145.45C7.15399 145.45 7.59576 145.405 8.02847 145.32L174.984 112.088C178.4 111.408 180.587 108.254 179.861 105.058L179.485 103.404C178.866 100.685 176.261 98.7109 173.287 98.7109Z" fill="#231F20"/>
<path d="M173.285 100.403C175.373 100.403 177.263 101.771 177.714 103.755L178.09 105.41C178.607 107.686 177.04 109.946 174.606 110.431L7.6505 143.663C7.33637 143.726 7.02226 143.755 6.71266 143.755C4.62422 143.755 2.73494 142.387 2.28412 140.404L1.90752 138.748C1.38971 136.472 2.95671 134.212 5.39096 133.727L172.348 100.496C172.662 100.434 172.976 100.403 173.285 100.403ZM173.285 102.097C173.098 102.097 172.909 102.114 172.724 102.152L5.76756 135.383C4.30376 135.674 3.36682 137.026 3.67732 138.396L4.0539 140.051C4.31823 141.217 5.43715 142.062 6.71266 142.062C6.90005 142.062 7.08925 142.044 7.27392 142.007L174.23 108.775C174.934 108.634 175.54 108.242 175.937 107.67C176.333 107.099 176.47 106.421 176.32 105.762L175.944 104.107C175.679 102.942 174.562 102.097 173.285 102.097Z" fill="#603813"/>
<path d="M86.3577 121.359C51.6843 121.359 23.4736 94.9657 23.4736 62.5246C23.4736 30.0835 51.6843 3.69043 86.3577 3.69043C121.031 3.69043 149.24 30.0835 149.24 62.5246C149.24 94.9657 121.031 121.359 86.3577 121.359Z" fill="#333333"/>
<path d="M86.3568 5.38658C120.087 5.38658 147.43 30.969 147.43 62.5275C147.43 94.0852 120.087 119.668 86.3568 119.668C52.6268 119.668 25.2833 94.0852 25.2833 62.5275C25.2833 30.969 52.6268 5.38658 86.3568 5.38658ZM86.3568 2C50.685 2 21.6641 29.1529 21.6641 62.5275C21.6641 95.9021 50.685 123.054 86.3568 123.054C122.028 123.054 151.05 95.9013 151.05 62.5275C151.05 29.1537 122.028 2 86.3568 2Z" fill="black"/>
<path d="M86.3557 5.38672C120.086 5.38672 147.429 30.9691 147.429 62.5275C147.429 94.0851 120.086 119.667 86.3557 119.667C52.6257 119.667 25.2822 94.0851 25.2822 62.5275C25.2822 30.9691 52.6257 5.38672 86.3557 5.38672ZM86.3557 8.77332C54.6752 8.77332 28.9005 32.8877 28.9005 62.5275C28.9005 92.1673 54.6752 116.281 86.3557 116.281C118.036 116.281 143.81 92.1673 143.81 62.5275C143.81 32.8877 118.036 8.77332 86.3557 8.77332Z" fill="#262626"/>
<path d="M86.3596 108.392C66.7127 108.392 49.3443 96.6757 43.1415 79.2344L42.2969 76.8643L44.8415 77.6232C57.479 81.4012 71.8356 83.3969 86.3596 83.3969C100.885 83.3969 115.242 81.4012 127.878 77.6232L130.421 76.8643L129.577 79.2344C123.375 96.6757 106.006 108.392 86.3596 108.392Z" fill="#F0D0B4"/>
<path d="M128.288 78.8359C122.444 95.268 105.885 107.123 86.3589 107.123C66.8324 107.123 50.2733 95.2689 44.428 78.8359C56.8555 82.5511 71.1477 84.6696 86.3589 84.6696C101.57 84.6696 115.862 82.5503 128.288 78.8359ZM132.55 74.8945L127.462 76.4158C114.961 80.1539 100.747 82.1293 86.3589 82.1293C71.9706 82.1293 57.7571 80.1539 45.2545 76.4158L40.166 74.8954L41.8525 79.6381C48.2401 97.5966 66.1253 109.662 86.3589 109.662C106.592 109.662 124.476 97.5966 130.863 79.6372L132.55 74.8945Z" fill="black"/>
<path d="M128.288 78.8369C122.443 95.2691 105.885 107.125 86.3586 107.125C66.8321 107.125 50.273 95.2699 44.4277 78.8369C56.8552 82.5521 71.1474 84.6706 86.3586 84.6706C101.57 84.6706 115.862 82.5513 128.288 78.8369ZM49.0545 82.7537C55.9191 95.9925 70.3037 104.584 86.3586 104.584C102.412 104.584 116.796 95.9916 123.661 82.7537C112.028 85.6769 99.2522 87.2101 86.3586 87.2101C73.4649 87.2101 60.688 85.6769 49.0545 82.7537Z" fill="#DFB28B"/>
<path d="M81.2864 93.8477C81.2864 93.0619 80.9528 92.3082 80.3589 91.7526C79.7651 91.1969 78.9596 90.8848 78.1198 90.8848C77.2799 90.8848 76.4745 91.1969 75.8806 91.7526C75.2867 92.3082 74.9531 93.0619 74.9531 93.8477C74.9531 94.6335 75.2867 95.3871 75.8806 95.9428C76.4745 96.4984 77.2799 96.8106 78.1198 96.8106C78.9596 96.8106 79.7651 96.4984 80.3589 95.9428C80.9528 95.3871 81.2864 94.6335 81.2864 93.8477Z" fill="#231F20"/>
<path d="M97.763 93.8477C97.763 93.0619 97.4293 92.3082 96.8355 91.7526C96.2416 91.1969 95.4362 90.8848 94.5963 90.8848C93.7565 90.8848 92.951 91.1969 92.3572 91.7526C91.7633 92.3082 91.4297 93.0619 91.4297 93.8477C91.4297 94.6335 91.7633 95.3871 92.3572 95.9428C92.951 96.4984 93.7565 96.8106 94.5963 96.8106C95.4362 96.8106 96.2416 96.4984 96.8355 95.9428C97.4293 95.3871 97.763 94.6335 97.763 93.8477Z" fill="#231F20"/>
</svg>
